PathFileType	4	(X/Y/Z)	D:\luciana\glass.trc
DataRate	CameraRate	NumFrames	NumMarkers	Units	OrigDataRate	OrigDataStartFrame	OrigNumFrames
250.00	250.00	9	19	mm	250.00	754	2010
Frame#	Time	pelvisR			PelvisL			Trunk1			Trunk2			Trunk3			C7			shoulder			upperArm1			upperArm2			upperArm3			elbow			forearm1			forearm2			forearm3			wrist1			wrist2			wrist3			Object			Hand			
		X1	Y1	Z1	X2	Y2	Z2	X3	Y3	Z3	X4	Y4	Z4	X5	Y5	Z5	X6	Y6	Z6	X7	Y7	Z7	X8	Y8	Z8	X9	Y9	Z9	X10	Y10	Z10	X11	Y11	Z11	X12	Y12	Z12	X13	Y13	Z13	X14	Y14	Z14	X15	Y15	Z15	X16	Y16	Z16	X17	Y17	Z17	X18	Y18	Z18	X19	Y19	Z19	

753	3.012000	1733.819962	646.261096	681.016564	1399.243951	648.702860	667.546451	1608.644962	845.291197	939.906478	1639.686584	756.810308	923.887789	1549.101591	791.142344	922.501206	1563.176155	1127.803922	837.664425	1740.509748	1057.078242	785.093009	1854.776621	907.791376	700.166583	1822.392464	867.298186	755.179942	1788.084269	933.181942	657.936573	1833.835959	797.904849	619.429946	1865.879774	777.940392	539.149940	1816.390395	831.244051	540.031791	1825.994730	714.697897	572.913289	1804.303646	812.952340	409.111589	1808.793068	733.156860	410.617322	1735.128164	829.196036	434.809506	1573.199034	768.942952	247.450352	1765.177727	777.248144	317.724854	
754	3.016000	1733.796716	646.250486	681.018114	1399.311543	648.671269	667.567551	1608.634114	845.274925	939.914823	1639.716864	756.803632	923.895419	1549.120903	791.133761	922.510505	1563.201308	1127.804995	837.685823	1740.492344	1057.075858	785.012007	1854.501367	907.891631	699.550867	1822.247863	867.303193	754.584551	1787.757993	933.369637	657.526731	1833.287477	798.176467	618.622243	1865.136266	778.233528	538.231552	1815.719843	831.488729	539.279222	1825.404644	714.972556	572.096050	1802.028418	813.263953	407.875150	1807.731152	733.335257	409.817815	1734.000087	829.170942	434.167713	1573.136330	768.977821	247.457281	1762.151599	777.160764	317.010999	
755	3.020000	1733.753920	646.239161	681.006730	1399.288058	648.677886	667.554140	1608.633995	845.253646	939.907372	1639.739275	756.794691	923.899174	1549.118519	791.120887	922.511101	1563.219786	1127.789140	837.697744	1740.466475	1057.080269	784.923553	1854.225636	907.993495	698.953807	1822.100043	867.310941	754.004478	1787.394881	933.556855	657.079041	1832.695007	798.415065	617.838383	1864.345670	778.503776	537.336767	1815.049052	831.716895	538.541913	1824.836850	715.232551	571.323872	1800.651073	813.436747	407.006890	1806.677818	733.486474	409.011245	1732.965469	829.246223	433.569640	1573.088765	769.046724	247.465611	1760.242939	777.145326	316.287100	
756	3.024000	1733.712435	646.239042	680.998921	1399.255991	648.699045	667.540729	1608.672261	845.257699	939.911842	1639.746428	756.782055	923.898160	1549.139500	791.117430	922.515571	1563.245535	1127.766609	837.725520	1740.426660	1057.087660	784.849405	1853.965163	908.112764	698.374867	1821.975112	867.337584	753.442526	1787.010193	933.734894	656.643629	1832.143664	798.656940	617.063463	1863.570809	778.777421	536.498487	1814.388990	831.933141	537.795305	1824.247718	715.486288	570.542514	1800.269961	813.490272	406.516939	1805.618882	733.625412	408.242762	1732.023001	829.411149	433.019519	1573.095202	769.096434	247.422785	1759.576082	777.256966	315.576196	
757	3.028000	1733.675957	646.236002	681.010008	1399.239779	648.659647	667.541385	1608.681440	845.258832	939.922631	1639.762163	756.773055	923.887670	1549.169421	791.126847	922.527075	1563.264012	1127.756596	837.740421	1740.395308	1057.091951	784.750521	1853.714228	908.231854	697.782397	1821.849465	867.369413	752.865732	1786.646008	933.905959	656.238198	1831.609249	798.922539	616.244733	1862.802982	779.039741	535.645068	1813.742518	832.145929	537.057042	1823.627949	715.730667	569.720507	1800.910473	813.433051	406.362385	1804.586172	733.741462	407.486737	1731.136799	829.668403	432.434916	1573.196054	769.072652	247.326836	1760.194778	777.508378	314.849496	
758	3.032000	1733.627319	646.229982	681.019127	1399.189472	648.643434	667.555034	1608.711600	845.238030	939.927876	1639.773011	756.769300	923.890650	1549.176097	791.117847	922.521949	1563.285828	1127.750754	837.749720	1740.371943	1057.102323	784.652710	1853.463054	908.361673	697.156131	1821.699381	867.392898	752.272844	1786.298633	934.101045	655.827522	1831.071377	799.171925	615.420520	1862.019300	779.321671	534.779668	1812.905431	832.374692	536.073208	1823.022723	715.983033	568.939805	1800.283551	813.515425	405.735224	1803.524613	733.855367	406.739712	1730.148792	829.782188	431.826115	1573.209882	769.071460	247.293517	1759.352565	777.587593	314.147621	
759	3.036000	1733.566523	646.231234	681.018412	1399.217248	648.624182	667.578578	1608.778358	845.249116	939.942300	1640.033960	756.925941	923.994780	1549.316287	791.176915	922.624588	1563.297749	1127.736688	837.753534	1740.338922	1057.105899	784.547806	1853.152514	908.752501	696.317852	1821.541429	867.401242	751.691341	1785.956860	934.294522	655.434310	1830.523729	799.414158	614.621520	1861.259580	779.611349	533.942819	1812.058210	832.960904	534.765184	1822.417855	716.224909	568.208575	1799.338818	813.635707	405.017138	1802.472234	733.992696	406.026244	1729.086876	829.782248	431.231111	1573.190093	769.128561	247.223571	1757.985711	777.633309	313.485652	
760	3.040000	1733.525038	646.232724	681.024313	1399.257660	648.591995	667.582691	1608.861327	845.302284	939.961851	1640.326858	757.108808	924.106240	1549.489975	791.254878	922.754943	1563.321471	1127.724409	837.774217	1740.303755	1057.111025	784.457564	1852.780461	909.473240	695.256352	1821.375251	867.400408	751.124024	1785.620213	934.514999	655.021369	1829.985142	799.694002	613.831043	1860.488534	779.862761	533.106387	1811.525941	833.889842	533.695817	1821.770668	716.459751	567.466021	1798.317075	813.752651	404.305339	1801.388025	734.125972	405.314714	1727.994084	829.750061	430.650294	1573.224545	769.228816	247.186422	1756.326914	777.687132	312.772512	
761	3.044000	1733.621836	646.324337	681.081295	1399.258375	648.626626	667.569160	1608.798623	845.238626	939.957738	1639.956355	756.842494	923.930705	1549.301505	791.141152	922.600567	1563.353777	1127.730608	837.797284	1740.287542	1057.116747	784.355164	1852.435231	909.726620	694.571376	1821.210861	867.408872	750.574708	1785.281658	934.710562	654.614568	1829.443455	799.953938	613.045275	1859.700203	780.092597	532.247365	1810.417056	834.203839	532.566965	1821.132898	716.681123	566.708207	1797.272444	813.862860	403.587610	1800.321698	734.266937	404.609442	1727.034211	829.917669	430.054724	1573.294640	769.160748	247.319281	1754.973769	777.695298	312.100321	
